<svg width="22" height="22" viewBox="0 0 22 22" fill="none" xmlns="http://www.w3.org/2000/svg">
<g clip-path="url(#clip0)">
<path d="M6.70704 6.70706L9.99997 3.41413V21C9.99997 21.5523 10.4477 22 11 22C11.5522 22 12 21.5523 12 21V3.41413L15.2929 6.70706C15.4881 6.90233 15.744 7 16 7C16.2559 7 16.5118 6.90233 16.707 6.70706C17.0976 6.3166 17.0976 5.68339 16.707 5.29286L11.707 0.292858C11.3166 -0.0976753 10.6834 -0.0976753 10.2928 0.292858L5.29284 5.29286C4.90231 5.68333 4.90231 6.31653 5.29284 6.70706C5.68337 7.09753 6.31657 7.09753 6.70704 6.70706Z" fill="#E73F5D"/>
</g>
<defs>
<clipPath id="clip0">
<rect width="22" height="22" fill="white"/>
</clipPath>
</defs>
</svg>
