<svg width="22" height="22" viewBox="0 0 22 22" fill="none" xmlns="http://www.w3.org/2000/svg">
<g clip-path="url(#clip0)">
<path d="M15.293 15.2929L12 18.5859L12 0.999987C12 0.44772 11.5523 -1.3113e-05 11 -1.3113e-05C10.4478 -1.3113e-05 10 0.44772 10 0.999987L10 18.5859L6.7071 15.2929C6.5119 15.0977 6.25597 15 6.00004 15C5.74411 15 5.48817 15.0977 5.29297 15.2929C4.90244 15.6834 4.90244 16.3166 5.29297 16.7071L10.293 21.7071C10.6834 22.0977 11.3166 22.0977 11.7072 21.7071L16.7072 16.7071C17.0977 16.3167 17.0977 15.6835 16.7072 15.2929C16.3166 14.9025 15.6834 14.9025 15.293 15.2929Z" fill="#5BACE1"/>
</g>
<defs>
<clipPath id="clip0">
<rect width="22" height="22" fill="white" transform="translate(22 22) rotate(-180)"/>
</clipPath>
</defs>
</svg>
